<svg width="34" height="39" viewBox="0 0 34 39" fill="none" xmlns="http://www.w3.org/2000/svg">
<g opacity="0.9" clip-path="url(#clip0_1_552)" filter="url(#filter0_d_1_552)">
<g filter="url(#filter1_d_1_552)">
<path d="M29.4467 23.4654C28.993 24.5135 28.456 25.4783 27.8338 26.3653C26.9857 27.5746 26.2913 28.4116 25.7561 28.8764C24.9265 29.6393 24.0377 30.03 23.0858 30.0523C22.4025 30.0523 21.5785 29.8578 20.6192 29.4634C19.6569 29.0708 18.7724 28.8764 17.9638 28.8764C17.1157 28.8764 16.206 29.0708 15.2331 29.4634C14.2587 29.8578 13.4737 30.0634 12.8736 30.0837C11.9608 30.1226 11.051 29.7208 10.1429 28.8764C9.5633 28.3708 8.83832 27.5042 7.96983 26.2764C7.03801 24.9654 6.27192 23.445 5.67176 21.7118C5.029 19.8396 4.70679 18.0267 4.70679 16.2716C4.70679 14.2611 5.14122 12.527 6.01137 11.0739C6.69524 9.90675 7.60503 8.98604 8.74369 8.31013C9.88236 7.63423 11.1127 7.28979 12.4377 7.26776C13.1626 7.26776 14.1133 7.49201 15.2948 7.93274C16.4729 8.37495 17.2294 8.5992 17.561 8.5992C17.809 8.5992 18.6493 8.33698 20.0739 7.81422C21.4211 7.32942 22.5581 7.12869 23.4895 7.20776C26.0135 7.41146 27.9097 8.40643 29.1708 10.199C26.9135 11.5667 25.7969 13.4824 25.8191 15.9399C25.8394 17.8541 26.5339 19.447 27.8986 20.7118C28.5171 21.2988 29.2079 21.7525 29.9763 22.0747C29.8097 22.558 29.6338 23.021 29.4467 23.4654ZM23.658 0.686475C23.658 2.18682 23.1099 3.58768 22.0173 4.88431C20.6989 6.42575 19.1041 7.31646 17.3747 7.17591C17.3527 6.99591 17.3399 6.80648 17.3399 6.60741C17.3399 5.16708 17.9669 3.62564 19.0804 2.36531C19.6363 1.72718 20.3433 1.19659 21.2007 0.773323C22.0562 0.356373 22.8655 0.12579 23.6266 0.0863037C23.6488 0.286876 23.658 0.487461 23.658 0.686455V0.686475Z" fill="black"/>
</g>
</g>
<defs>
<filter id="filter0_d_1_552" x="-1.79321" y="0.0859375" width="38" height="38" filterUnits="userSpaceOnUse" color-interpolation-filters="sRGB">
<feFlood flood-opacity="0" result="BackgroundImageFix"/>
<feColorMatrix in="SourceAlpha" type="matrix" values="0 0 0 0 0 0 0 0 0 0 0 0 0 0 0 0 0 0 127 0" result="hardAlpha"/>
<feOffset dy="4"/>
<feGaussianBlur stdDeviation="2"/>
<feComposite in2="hardAlpha" operator="out"/>
<feColorMatrix type="matrix" values="0 0 0 0 0 0 0 0 0 0 0 0 0 0 0 0 0 0 0.25 0"/>
<feBlend mode="normal" in2="BackgroundImageFix" result="effect1_dropShadow_1_552"/>
<feBlend mode="normal" in="SourceGraphic" in2="effect1_dropShadow_1_552" result="shape"/>
</filter>
<filter id="filter1_d_1_552" x="0.706787" y="0.0863037" width="33.2695" height="38" filterUnits="userSpaceOnUse" color-interpolation-filters="sRGB">
<feFlood flood-opacity="0" result="BackgroundImageFix"/>
<feColorMatrix in="SourceAlpha" type="matrix" values="0 0 0 0 0 0 0 0 0 0 0 0 0 0 0 0 0 0 127 0" result="hardAlpha"/>
<feOffset dy="4"/>
<feGaussianBlur stdDeviation="2"/>
<feComposite in2="hardAlpha" operator="out"/>
<feColorMatrix type="matrix" values="0 0 0 0 0 0 0 0 0 0 0 0 0 0 0 0 0 0 0.25 0"/>
<feBlend mode="normal" in2="BackgroundImageFix" result="effect1_dropShadow_1_552"/>
<feBlend mode="normal" in="SourceGraphic" in2="effect1_dropShadow_1_552" result="shape"/>
</filter>
<clipPath id="clip0_1_552">
<rect width="30" height="30" fill="white" transform="translate(2.20679 0.0859375)"/>
</clipPath>
</defs>
</svg>
