<svg width="38" height="39" viewBox="0 0 38 39" fill="none" xmlns="http://www.w3.org/2000/svg">
<g opacity="0.9" clip-path="url(#clip0_1_548)" filter="url(#filter0_d_1_548)">
<path d="M19.2065 12.3586V18.1677H27.2792C26.9248 20.0359 25.861 21.6178 24.2656 22.6814L29.1337 26.4587C31.9701 23.8406 33.6065 19.9951 33.6065 15.427C33.6065 14.3634 33.511 13.3405 33.3337 12.3588L19.2065 12.3586Z" fill="#4285F4"/>
<path d="M10.8001 17.9409L9.7021 18.7814L5.81567 21.8086C8.28385 26.704 13.3426 30.0859 19.2062 30.0859C23.2561 30.0859 26.6515 28.7495 29.1333 26.4587L24.2652 22.6814C22.9288 23.5814 21.2243 24.1269 19.2062 24.1269C15.3062 24.1269 11.9926 21.4951 10.8062 17.9496L10.8001 17.9409Z" fill="#34A853"/>
<path d="M5.81576 8.36316C4.79309 10.3813 4.20679 12.6586 4.20679 15.0858C4.20679 17.513 4.79309 19.7903 5.81576 21.8084C5.81576 21.822 10.8068 17.9357 10.8068 17.9357C10.5068 17.0357 10.3294 16.0812 10.3294 15.0856C10.3294 14.0901 10.5068 13.1356 10.8068 12.2356L5.81576 8.36316Z" fill="#FBBC05"/>
<path d="M19.2065 6.05866C21.4156 6.05866 23.3792 6.82228 24.9474 8.29502L29.2428 3.99962C26.6382 1.57239 23.2565 0.0859375 19.2065 0.0859375C13.3429 0.0859375 8.28385 3.45411 5.81567 8.36322L10.8065 12.236C11.9928 8.69046 15.3065 6.05866 19.2065 6.05866Z" fill="#EA4335"/>
</g>
<defs>
<filter id="filter0_d_1_548" x="0.206787" y="0.0859375" width="38" height="38" filterUnits="userSpaceOnUse" color-interpolation-filters="sRGB">
<feFlood flood-opacity="0" result="BackgroundImageFix"/>
<feColorMatrix in="SourceAlpha" type="matrix" values="0 0 0 0 0 0 0 0 0 0 0 0 0 0 0 0 0 0 127 0" result="hardAlpha"/>
<feOffset dy="4"/>
<feGaussianBlur stdDeviation="2"/>
<feComposite in2="hardAlpha" operator="out"/>
<feColorMatrix type="matrix" values="0 0 0 0 0 0 0 0 0 0 0 0 0 0 0 0 0 0 0.25 0"/>
<feBlend mode="normal" in2="BackgroundImageFix" result="effect1_dropShadow_1_548"/>
<feBlend mode="normal" in="SourceGraphic" in2="effect1_dropShadow_1_548" result="shape"/>
</filter>
<clipPath id="clip0_1_548">
<rect width="30" height="30" fill="white" transform="translate(4.20679 0.0859375)"/>
</clipPath>
</defs>
</svg>
