<svg width="76" height="27" viewBox="0 0 76 27" fill="none" xmlns="http://www.w3.org/2000/svg">
<path opacity="0.9" d="M19.6123 26.5H0.47168V25.4453H3.59668V4.11719H0.47168V3.0625H12.3857V4.11719H9.06543V25.4453H13.0889C13.8701 25.4453 14.5602 25.3151 15.1592 25.0547C16.1748 24.5599 16.9561 23.4401 17.5029 21.6953L18.6357 18.0234H19.7686L19.6123 26.5ZM29.6904 10.1328C27.6071 10.2109 26.4743 12.4115 26.292 16.7344L28.792 16.8516C29.8337 16.9036 30.6149 16.8385 31.1357 16.6562C31.8649 16.3698 32.2295 15.6146 32.2295 14.3906C32.2035 11.6042 31.3571 10.1849 29.6904 10.1328ZM36.9951 22.4766C36.8389 22.8932 36.6305 23.2969 36.3701 23.6875C35.042 25.8229 32.8545 26.8906 29.8076 26.8906C28.0889 26.8906 26.5524 26.5391 25.1982 25.8359C22.3597 24.3516 20.9404 21.7214 20.9404 17.9453C20.9404 15.6276 21.5654 13.6875 22.8154 12.125C24.4561 10.1198 26.7477 9.11719 29.6904 9.11719C31.305 9.11719 32.7503 9.39062 34.0264 9.9375C36.292 10.9531 37.4248 12.5677 37.4248 14.7812C37.4248 15.224 37.3467 15.6276 37.1904 15.9922C36.5133 17.4505 34.0785 18.1146 29.8857 17.9844L26.292 17.8672C26.318 19.3776 26.4482 20.6797 26.6826 21.7734C27.2816 24.4297 28.6227 25.7578 30.7061 25.7578C31.3571 25.7578 31.9951 25.6406 32.6201 25.4062C34.1826 24.8333 35.3285 23.7526 36.0576 22.1641L36.9951 22.4766ZM53.5186 26.8906C51.4352 26.7604 50.1201 25.5755 49.5732 23.3359C49.443 23.7005 49.2738 24.0521 49.0654 24.3906C48.0238 26.0573 46.3962 26.8906 44.1826 26.8906C43.4535 26.8906 42.7894 26.7995 42.1904 26.6172C40.1592 25.9661 39.1436 24.4818 39.1436 22.1641C39.1696 18.7526 42.529 16.9818 49.2217 16.8516V14.3125C49.2217 13.5573 49.1696 12.9062 49.0654 12.3594C48.805 10.875 48.0628 10.1328 46.8389 10.1328C46.4743 10.1328 46.1488 10.1979 45.8623 10.3281C45.4196 10.5885 45.055 11.2396 44.7686 12.2812C44.6644 12.6458 44.5863 12.9062 44.5342 13.0625C44.1436 14.1562 43.3883 14.7031 42.2686 14.7031C42.0081 14.7031 41.7607 14.6641 41.5264 14.5859C40.5628 14.3255 40.0811 13.6875 40.0811 12.6719C40.0811 12.2292 40.1982 11.8125 40.4326 11.4219C41.3441 9.88542 43.5706 9.11719 47.1123 9.11719C48.0238 9.11719 48.8701 9.20833 49.6514 9.39062C52.6722 10.1458 54.1826 12.151 54.1826 15.4062V23.5703C54.1826 24.8203 54.4691 25.4714 55.042 25.5234C55.7972 25.4974 56.2529 24.5859 56.4092 22.7891L57.4248 22.8281C57.3467 23.6354 57.2295 24.2995 57.0732 24.8203C56.6045 26.2005 55.4196 26.8906 53.5186 26.8906ZM46.2139 25.2109C46.3962 25.2109 46.6045 25.1719 46.8389 25.0938C47.9326 24.6771 48.7269 23.5573 49.2217 21.7344V17.9453C48.0498 17.9974 47.0863 18.1406 46.3311 18.375C44.9248 18.8958 44.2217 20.0156 44.2217 21.7344C44.2477 24 44.9118 25.1589 46.2139 25.2109ZM69.2998 25.4844C69.4561 25.4844 69.5993 25.4974 69.7295 25.5234C70.068 25.5755 70.2373 25.901 70.2373 26.5H58.5967V25.4844C60.5238 25.4844 61.5133 24.8073 61.5654 23.4531V10.7578H58.4014V9.70312H61.5654V9.19531C61.5654 7.21615 61.9821 5.54948 62.8154 4.19531C64.1696 2.00781 66.3701 0.914062 69.417 0.914062C70.8232 0.914062 72.0212 1.16146 73.0107 1.65625C74.3649 2.33333 75.042 3.24479 75.042 4.39062C75.042 4.625 75.0029 4.84635 74.9248 5.05469C74.5863 5.88802 73.8831 6.30469 72.8154 6.30469C72.2165 6.27865 71.6956 6.01823 71.2529 5.52344C71.0967 5.3151 70.7581 4.61198 70.2373 3.41406C69.8206 2.42448 69.2868 1.92969 68.6357 1.92969C68.141 1.92969 67.7373 2.11198 67.4248 2.47656C66.8258 3.23177 66.5264 5.57552 66.5264 9.50781V9.70312H70.9404V10.7578H66.5264V25.4844H69.2998Z" fill="#020D19"/>
</svg>
