<svg width="42" height="42" viewBox="0 0 42 42" fill="none" xmlns="http://www.w3.org/2000/svg">
<mask id="path-1-inside-1_1_510" fill="white">
<path d="M0.770417 9.29527L12.2404 10.4074C17.7242 10.9391 21.7386 15.8156 21.2069 21.2994L9.73695 20.1872C4.25318 19.6555 0.238722 14.779 0.770417 9.29527Z"/>
<path d="M1.46762 2.10509L6.44388 2.58758C15.514 3.467 22.154 11.5327 21.2745 20.6029L21.2069 21.2994L16.2307 20.8168C7.16058 19.9374 0.520671 11.8717 1.4001 2.80151L1.46762 2.10509Z"/>
<path d="M14.0169 20.6022L12.9048 32.0722C12.3731 37.556 7.49663 41.5704 2.01285 41.0387L3.12496 29.5687C3.65666 24.085 8.53316 20.0705 14.0169 20.6022Z"/>
<path d="M21.2069 21.2994L20.7244 26.2756C19.845 35.3458 11.7793 41.9857 2.70912 41.1062L2.01285 41.0387L2.49519 36.0625C3.37462 26.9923 11.4404 20.3524 20.5105 21.2318L21.2069 21.2994Z"/>
<path d="M33.2109 0.862824L32.0988 12.3328C31.5671 17.8166 26.6907 21.831 21.2069 21.2994L22.3189 9.82936C22.8506 4.34558 27.7271 0.331129 33.2109 0.862824Z"/>
<path d="M40.4011 1.55999L39.9186 6.53624C39.0392 15.6064 30.9735 22.2463 21.9033 21.3669L21.2069 21.2994L21.6894 16.3231C22.5688 7.25295 30.6345 0.613038 39.7047 1.49246L40.4011 1.55999Z"/>
<path d="M41.6433 33.3035L30.1733 32.1913C24.6895 31.6596 20.6752 26.7831 21.2069 21.2994L32.6767 22.4115C38.1605 22.9432 42.175 27.8197 41.6433 33.3035Z"/>
<path d="M40.9463 40.4936L35.97 40.0111C26.8998 39.1317 20.2599 31.066 21.1394 21.9958L21.2069 21.2994L26.1831 21.7819C35.2533 22.6613 41.8932 30.727 41.0138 39.7972L40.9463 40.4936Z"/>
</mask>
<path d="M0.770417 9.29527L1.56659 1.08378L-6.64491 0.287609L-7.44108 8.4991L0.770417 9.29527ZM9.73695 20.1872L8.94078 28.3987H8.94078L9.73695 20.1872ZM12.2404 10.4074L13.0366 2.19589H13.0366L12.2404 10.4074ZM1.46762 2.10509L2.26379 -6.1064L-5.9477 -6.90257L-6.74387 1.30892L1.46762 2.10509ZM16.2307 20.8168L17.027 12.6053L17.0269 12.6053L16.2307 20.8168ZM1.4001 2.80151L-6.8114 2.00534V2.00534L1.4001 2.80151ZM6.44388 2.58758L7.24005 -5.62391L6.44388 2.58758ZM21.2745 20.6029L29.486 21.3997L29.486 21.3991L21.2745 20.6029ZM14.0169 20.6022L22.2284 21.3984L23.0246 13.1869L14.8131 12.3907L14.0169 20.6022ZM2.01285 41.0387L-6.19866 40.2428L-6.99455 48.4539L1.21655 49.2502L2.01285 41.0387ZM3.12496 29.5687L-5.08653 28.7726L3.12496 29.5687ZM12.9048 32.0722L4.69333 31.276V31.276L12.9048 32.0722ZM2.49519 36.0625L-5.7163 35.2663L-5.71632 35.2665L2.49519 36.0625ZM20.5105 21.2318L21.3068 13.0203L21.3067 13.0203L20.5105 21.2318ZM20.7244 26.2756L12.513 25.4794L12.513 25.4794L20.7244 26.2756ZM2.70912 41.1062L1.91281 49.3177L1.91295 49.3177L2.70912 41.1062ZM33.2109 0.862824L41.4224 1.65899L42.2185 -6.5525L34.007 -7.34867L33.2109 0.862824ZM22.3189 9.82936L14.1074 9.03319L14.1074 9.03329L22.3189 9.82936ZM32.0988 12.3328L23.8873 11.5366L32.0988 12.3328ZM40.4011 1.55999L48.6126 2.35615L49.4088 -5.85533L41.1973 -6.65151L40.4011 1.55999ZM21.6894 16.3231L13.4779 15.5269L13.4779 15.527L21.6894 16.3231ZM39.7047 1.49246L40.5009 -6.71903H40.5009L39.7047 1.49246ZM39.9186 6.53624L48.1301 7.33241V7.33241L39.9186 6.53624ZM21.9033 21.3669L21.1068 29.5784L21.1071 29.5784L21.9033 21.3669ZM41.6433 33.3035L40.8471 41.5149L49.0586 42.3111L49.8548 34.0996L41.6433 33.3035ZM32.6767 22.4115L31.8805 30.623L31.8806 30.623L32.6767 22.4115ZM30.1733 32.1913L30.9694 23.9799H30.9694L30.1733 32.1913ZM40.9463 40.4936L40.1501 48.7051L48.3616 49.5013L49.1578 41.2898L40.9463 40.4936ZM26.1831 21.7819L25.3869 29.9934L25.387 29.9934L26.1831 21.7819ZM41.0138 39.7972L49.2253 40.5934L49.2253 40.5934L41.0138 39.7972ZM35.97 40.0111L36.7662 31.7996H36.7662L35.97 40.0111ZM21.1394 21.9958L12.9279 21.1989L12.9279 21.1996L21.1394 21.9958ZM-0.0257524 17.5068L11.4442 18.6189L13.0366 2.19589L1.56659 1.08378L-0.0257524 17.5068ZM22.0031 13.0879L10.5331 11.9758L8.94078 28.3987L20.4108 29.5108L22.0031 13.0879ZM10.5331 11.9758C9.58443 11.8838 8.88993 11.0401 8.98191 10.0914L-7.44108 8.4991C-8.41248 18.518 -1.07807 27.4273 8.94078 28.3987L10.5331 11.9758ZM11.4442 18.6189C12.3929 18.7109 13.0874 19.5545 12.9955 20.5032L29.4184 22.0955C30.3898 12.0767 23.0554 3.16729 13.0366 2.19589L11.4442 18.6189ZM0.671449 10.3166L5.64771 10.7991L7.24005 -5.62391L2.26379 -6.1064L0.671449 10.3166ZM13.0631 19.8061L12.9955 20.5025L29.4184 22.0962L29.486 21.3997L13.0631 19.8061ZM22.0032 13.0879L17.027 12.6053L15.4345 29.0283L20.4107 29.5108L22.0032 13.0879ZM9.61159 3.59768L9.67911 2.90126L-6.74387 1.30892L-6.8114 2.00534L9.61159 3.59768ZM17.0269 12.6053C12.4918 12.1656 9.17188 8.13276 9.61159 3.59768L-6.8114 2.00534C-8.13053 15.6106 1.82933 27.7092 15.4346 29.0283L17.0269 12.6053ZM5.64771 10.7991C10.1828 11.2388 13.5027 15.2717 13.063 19.8067L29.486 21.3991C30.8052 7.79383 20.8453 -4.30478 7.24005 -5.62391L5.64771 10.7991ZM5.80544 19.806L4.69333 31.276L21.1163 32.8684L22.2284 21.3984L5.80544 19.806ZM10.2243 41.8349L11.3365 30.3649L-5.08653 28.7726L-6.19864 40.2426L10.2243 41.8349ZM11.3365 30.3649C11.4284 29.4162 12.2721 28.7217 13.2208 28.8137L14.8131 12.3907C4.79425 11.4193 -4.11512 18.7537 -5.08653 28.7726L11.3365 30.3649ZM4.69333 31.276C4.60135 32.2247 3.75771 32.9192 2.80902 32.8272L1.21668 49.2502C11.2355 50.2216 20.1449 42.8872 21.1163 32.8684L4.69333 31.276ZM12.9955 20.5032L12.513 25.4794L28.9359 27.0718L29.4184 22.0955L12.9955 20.5032ZM3.50543 32.8948L2.80916 32.8272L1.21655 49.2502L1.91281 49.3177L3.50543 32.8948ZM10.2244 41.8347L10.7067 36.8584L-5.71632 35.2665L-6.19866 40.2428L10.2244 41.8347ZM19.7142 29.4433L20.4106 29.5108L22.0032 13.0879L21.3068 13.0203L19.7142 29.4433ZM10.7067 36.8586C11.1464 32.3236 15.1793 29.0036 19.7143 29.4433L21.3067 13.0203C7.70144 11.7012 -4.39716 21.6611 -5.7163 35.2663L10.7067 36.8586ZM12.513 25.4794C12.0732 30.0145 8.04037 33.3345 3.50529 32.8948L1.91295 49.3177C15.5182 50.6369 27.6168 40.677 28.9359 27.0718L12.513 25.4794ZM24.9994 0.0666542L23.8873 11.5366L40.3103 13.129L41.4224 1.65899L24.9994 0.0666542ZM29.4184 22.0954L30.5304 10.6254L14.1074 9.03329L12.9954 20.5033L29.4184 22.0954ZM30.5304 10.6255C30.6224 9.67683 31.466 8.98233 32.4147 9.07432L34.007 -7.34867C23.9882 -8.32008 15.0788 -0.985666 14.1074 9.03319L30.5304 10.6255ZM23.8873 11.5366C23.7953 12.4855 22.9517 13.1798 22.0031 13.0879L20.4108 29.5108C30.4298 30.4823 39.3389 23.1477 40.3103 13.129L23.8873 11.5366ZM32.1896 0.763818L31.7071 5.74008L48.1301 7.33241L48.6126 2.35615L32.1896 0.763818ZM22.6998 13.1554L22.0034 13.0879L20.4105 29.5108L21.1068 29.5784L22.6998 13.1554ZM29.4184 22.0954L29.9009 17.1192L13.4779 15.527L12.9954 20.5033L29.4184 22.0954ZM38.9085 9.70396L39.6049 9.77148L41.1973 -6.65151L40.5009 -6.71903L38.9085 9.70396ZM29.9009 17.1193C30.3406 12.5842 34.3734 9.26424 38.9085 9.70396L40.5009 -6.71903C26.8956 -8.03817 14.797 1.9217 13.4779 15.5269L29.9009 17.1193ZM31.7071 5.74007C31.2674 10.2752 27.2345 13.5951 22.6995 13.1554L21.1071 29.5784C34.7124 30.8975 46.811 20.9377 48.1301 7.33241L31.7071 5.74007ZM42.4394 25.092L30.9694 23.9799L29.3771 40.4028L40.8471 41.5149L42.4394 25.092ZM20.4107 29.5108L31.8805 30.623L33.4729 14.2L22.0031 13.0879L20.4107 29.5108ZM31.8806 30.623C32.8293 30.715 33.5238 31.5586 33.4318 32.5073L49.8548 34.0996C50.8262 24.0808 43.4918 15.1714 33.4729 14.2L31.8806 30.623ZM30.9694 23.9799C30.021 23.8879 29.3264 23.0445 29.4184 22.0955L12.9955 20.5032C12.0241 30.5218 19.358 39.4314 29.3771 40.4028L30.9694 23.9799ZM41.7424 32.2821L36.7662 31.7996L35.1738 48.2226L40.1501 48.7051L41.7424 32.2821ZM29.3508 22.7927L29.4184 22.0962L12.9955 20.5025L12.9279 21.1989L29.3508 22.7927ZM20.4107 29.5108L25.3869 29.9934L26.9794 13.5704L22.0032 13.0879L20.4107 29.5108ZM32.8023 39.001L32.7348 39.6974L49.1578 41.2898L49.2253 40.5934L32.8023 39.001ZM25.387 29.9934C29.9221 30.4331 33.242 34.4659 32.8023 39.001L49.2253 40.5934C50.5444 26.9881 40.5846 14.8895 26.9793 13.5704L25.387 29.9934ZM36.7662 31.7996C32.2311 31.3599 28.9111 27.327 29.3508 22.792L12.9279 21.1996C11.6087 34.8049 21.5686 46.9035 35.1738 48.2226L36.7662 31.7996Z" fill="#73895D" mask="url(#path-1-inside-1_1_510)"/>
</svg>
